<svg width="236" height="64" viewBox="0 0 236 64" fill="none" xmlns="http://www.w3.org/2000/svg">
<path d="M114.127 17.2179H123.224C128.78 17.2179 133.316 21.3379 133.316 26.3904C133.316 31.4428 128.78 35.1596 123.224 35.1596H117.365V45.655H114.127V17.2179ZM130.078 26.34C130.078 23.0641 127.003 20.3804 123.224 20.3804H117.365V31.9594H123.224C126.991 31.9971 130.078 29.452 130.078 26.34Z" fill="#90C03E"/>
<path d="M136.881 34.5927V17.2053H140.132V34.5675C140.132 39.3427 143.269 42.8202 147.503 42.8202C151.736 42.8202 154.873 39.3301 154.873 34.5675V17.2053H158.124V34.5927C158.124 41.22 153.601 46.0709 147.503 46.0709C141.404 46.0709 136.881 41.22 136.881 34.5927Z" fill="#90C03E"/>
<path d="M189.132 20.3678V29.3638H200.925V32.5767H189.132V42.4548H202.752V45.6424H185.894V17.2179H202.752V20.3804H189.132V20.3678Z" fill="#90C03E"/>
<path d="M173.798 34.1769C177.288 33.1311 179.833 29.9686 179.833 26.277C179.833 21.2749 175.487 17.2179 170.17 17.2179H161.703V20.393H170.283C173.66 20.393 176.507 22.9381 176.507 26.214C176.507 29.2756 173.697 31.8586 170.283 31.8586H167.183H161.715V45.6424H164.966V34.5549H170.321L178.334 45.6424H182.341L173.811 34.1769H173.798Z" fill="#90C03E"/>
<path d="M2.89789 17.6085H0V34.7817C0 42.921 4.87602 46.3481 10.8482 46.3481C16.0896 46.3481 20.6128 42.0138 21.1546 34.9581V17.5959H18.2567V34.9581C17.8913 40.0231 14.817 43.4502 10.8482 43.4502C6.51396 43.4502 2.89789 40.5523 2.89789 34.9581V17.5959V17.6085Z" fill="#1D9AD6"/>
<path d="M27.7947 17.6086H24.7205V45.9954H41.7172V43.1101H27.6184L27.7947 17.6086Z" fill="#1D9AD6"/>
<path fill-rule="evenodd" clip-rule="evenodd" d="M47.0088 25.2062H50.0831V46.1844H47.0088V25.2062ZM38.1514 17.6086H58.9406V20.6829H38.1514V17.6086Z" fill="#1D9AD6"/>
<path d="M79.3267 45.9953L73.1782 35.3235H65.4042V45.9953H62.5063V32.2492H72.9892C76.6052 32.2492 78.9613 29.5403 78.9613 26.466C78.9613 23.2153 76.6052 20.4938 72.9892 20.4938H62.5063V17.5959H72.9892C78.407 17.5959 82.023 21.5774 82.023 26.4534C82.023 30.0695 79.6669 33.3202 76.2398 34.5927L82.7538 45.9827H79.3141L79.3267 45.9953Z" fill="#1D9AD6"/>
<path d="M110.561 45.9954H107.298L98.4402 22.3209L89.5827 45.9954H86.332L97.1802 17.6086H99.8891L110.561 45.9954Z" fill="#1D9AD6"/>
<path fill-rule="evenodd" clip-rule="evenodd" d="M189.51 12.8711C209.039 15.58 213.197 0.397558 230.193 0.221164C210.122 -1.94596 207.048 12.5183 189.51 12.8711Z" fill="#90C03E"/>
<path fill-rule="evenodd" clip-rule="evenodd" d="M194.398 15.9454C213.927 18.4779 218.085 3.29543 235.082 3.10644C215.011 0.939316 211.937 15.58 194.398 15.9454Z" fill="#1D9AD6"/>
<path d="M1.66333 52.0684H202.752V51.4762H1.66333" fill="#6D6E70"/>
<path d="M2.14203 61.5053V63.9118H1.58765V57.99H3.80516C4.48554 57.99 5.01472 58.1412 5.4053 58.4562C5.79589 58.7712 5.99748 59.1995 5.99748 59.7539C5.99748 60.3083 5.80849 60.7367 5.4305 61.0391C5.05252 61.3415 4.51074 61.4927 3.79256 61.4927H2.14203V61.5053ZM2.14203 61.0769H3.80516C4.33434 61.0769 4.75013 60.9635 5.02732 60.7367C5.30451 60.5099 5.4431 60.1823 5.4431 59.7665C5.4431 59.3507 5.30451 59.0358 5.02732 58.7838C4.75013 58.5444 4.34694 58.4184 3.84296 58.4058H2.14203V61.0643V61.0769Z" fill="#6D6E70"/>
<path d="M20.8772 57.99V62.0344C20.8772 62.4376 20.7764 62.7778 20.5875 63.0802C20.3985 63.37 20.1213 63.5968 19.7811 63.7606C19.4283 63.9244 19.0377 64 18.5841 64C17.9038 64 17.3494 63.8362 16.9336 63.496C16.5178 63.1558 16.3036 62.6896 16.291 62.0848V58.0026H16.8328V62.0092C16.8328 62.5132 16.984 62.8912 17.299 63.1684C17.614 63.4456 18.0424 63.5842 18.5715 63.5842C19.1007 63.5842 19.5291 63.4456 19.8441 63.1684C20.1591 62.8912 20.3103 62.5132 20.3103 62.0092V58.0026H20.8646L20.8772 57.99Z" fill="#6D6E70"/>
<path d="M34.0063 61.4423H32.1164V63.9118H31.562V57.99H33.6787C34.3717 57.99 34.9135 58.1412 35.3041 58.4436C35.6947 58.746 35.8963 59.1743 35.8963 59.7287C35.8963 60.1067 35.7703 60.4469 35.5309 60.7367C35.2915 61.0265 34.9639 61.2281 34.5481 61.3415L36.1734 63.8614V63.9118H35.5813L34.0063 61.4423ZM32.1164 61.0265H33.8047C34.2709 61.0265 34.6363 60.9005 34.9135 60.6737C35.1907 60.4343 35.3293 60.1193 35.3293 59.7413C35.3293 59.3255 35.1781 58.998 34.8883 58.7712C34.5985 58.5444 34.1827 58.431 33.6535 58.431H32.1038V61.0391L32.1164 61.0265Z" fill="#6D6E70"/>
<path d="M50.1459 61.0768H47.0969V63.496H50.5995V63.9243H46.5425V58.0026H50.5743V58.4309H47.0969V60.6611H50.1459V61.0894V61.0768Z" fill="#6D6E70"/>
<path d="M75.8242 62.2486H72.8633L72.1955 63.9118H71.616L74.0855 57.99H74.6147L77.0842 63.9118H76.5172L75.8368 62.2486H75.8242ZM73.0397 61.8329H75.6478L74.3375 58.6074L73.0271 61.8329H73.0397Z" fill="#6D6E70"/>
<path d="M87.8693 63.9118H87.3149V57.99H87.8693V63.9118Z" fill="#6D6E70"/>
<path d="M101.225 61.4423H99.3346V63.9118H98.7803V57.99H100.897C101.59 57.99 102.132 58.1412 102.522 58.4436C102.913 58.746 103.115 59.1743 103.115 59.7287C103.115 60.1067 102.989 60.4469 102.749 60.7367C102.51 61.0265 102.182 61.2281 101.766 61.3415L103.392 63.8614V63.9118H102.8L101.225 61.4423ZM99.3346 61.0265H101.023C101.489 61.0265 101.855 60.9005 102.132 60.6737C102.409 60.4343 102.548 60.1193 102.548 59.7413C102.548 59.3255 102.396 58.998 102.107 58.7712C101.817 58.5444 101.401 58.431 100.872 58.431H99.3221V61.0391L99.3346 61.0265Z" fill="#6D6E70"/>
<path d="M126.134 60.6863C125.869 60.3965 125.68 60.1445 125.567 59.9304C125.454 59.7036 125.391 59.4894 125.391 59.2626C125.391 58.8468 125.529 58.5192 125.794 58.2798C126.071 58.0404 126.424 57.9144 126.89 57.9144C127.306 57.9144 127.633 58.0278 127.898 58.242C128.15 58.4562 128.276 58.7334 128.276 59.0736C128.276 59.4642 128.024 59.8422 127.532 60.2201L126.814 60.7241L128.603 62.6141C128.881 62.2109 129.007 61.7699 129.007 61.2659H129.498C129.498 61.9337 129.309 62.5007 128.931 62.9668L129.826 63.9118H129.183L128.616 63.3196C128.377 63.5338 128.112 63.6976 127.797 63.811C127.482 63.9244 127.167 63.9874 126.814 63.9874C126.197 63.9874 125.706 63.8488 125.34 63.559C124.975 63.2692 124.798 62.8786 124.798 62.3999C124.798 62.1101 124.887 61.8455 125.076 61.5809C125.265 61.3289 125.592 61.0391 126.058 60.7115L126.121 60.6737L126.134 60.6863ZM126.839 63.5842C127.117 63.5842 127.369 63.5338 127.633 63.433C127.885 63.3322 128.112 63.181 128.314 62.992L126.499 61.0769L126.436 61.0139L126.235 61.1525C125.655 61.5809 125.353 62.0093 125.353 62.4125C125.353 62.7652 125.491 63.055 125.756 63.2692C126.02 63.4834 126.386 63.5968 126.839 63.5968V63.5842ZM125.932 59.2374C125.932 59.565 126.134 59.9556 126.537 60.4091L127.117 60.006C127.306 59.88 127.469 59.7414 127.583 59.5902C127.709 59.439 127.772 59.2626 127.772 59.061C127.772 58.8468 127.696 58.6704 127.532 58.5318C127.369 58.3932 127.154 58.3176 126.89 58.3176C126.6 58.3176 126.361 58.4058 126.197 58.5696C126.033 58.7334 125.932 58.9602 125.932 59.2248V59.2374Z" fill="#6D6E70"/>
<path d="M152.064 57.9901L154.47 63.2189L156.877 57.9901H157.608V63.9119H157.053V61.329L157.104 58.6831L154.684 63.8993H154.256L151.837 58.6957L151.887 61.3038V63.8993H151.333V57.9775H152.064V57.9901Z" fill="#6D6E70"/>
<path d="M173.244 61.2785C173.244 61.8203 173.143 62.2991 172.929 62.7149C172.727 63.1307 172.425 63.4457 172.047 63.6598C171.656 63.8866 171.215 63.9874 170.711 63.9874C169.955 63.9874 169.338 63.7354 168.872 63.2441C168.405 62.7527 168.166 62.0849 168.166 61.2407V60.636C168.166 60.0942 168.267 59.6154 168.481 59.1996C168.695 58.7838 168.985 58.4688 169.376 58.242C169.766 58.0153 170.207 57.9019 170.699 57.9019C171.19 57.9019 171.643 58.0153 172.021 58.2294C172.399 58.4436 172.702 58.7586 172.903 59.1618C173.118 59.565 173.218 60.0312 173.231 60.5604V61.2659L173.244 61.2785ZM172.689 60.636C172.689 59.9178 172.513 59.3634 172.16 58.9602C171.807 58.557 171.316 58.3554 170.699 58.3554C170.081 58.3554 169.615 58.557 169.25 58.9602C168.897 59.3634 168.708 59.9304 168.708 60.6612V61.2785C168.708 61.9841 168.884 62.5385 169.25 62.9417C169.602 63.3575 170.094 63.559 170.711 63.559C171.329 63.559 171.82 63.3575 172.173 62.9543C172.525 62.5511 172.702 61.9841 172.702 61.2659V60.636H172.689Z" fill="#6D6E70"/>
<path d="M186.221 61.4423H184.331V63.9118H183.777V57.99H185.894C186.587 57.99 187.128 58.1412 187.519 58.4436C187.91 58.746 188.111 59.1743 188.111 59.7287C188.111 60.1067 187.985 60.4469 187.746 60.7367C187.506 61.0265 187.179 61.2281 186.763 61.3415L188.388 63.8614V63.9118H187.796L186.221 61.4423ZM184.331 61.0265H186.02C186.486 61.0265 186.851 60.9005 187.128 60.6737C187.406 60.4343 187.544 60.1193 187.544 59.7413C187.544 59.3255 187.393 58.998 187.103 58.7712C186.813 58.5444 186.398 58.431 185.868 58.431H184.319V61.0391L184.331 61.0265Z" fill="#6D6E70"/>
<path d="M202.361 61.0768H199.312V63.496H202.815V63.9243H198.758V58.0026H202.789V58.4309H199.312V60.6611H202.361V61.0894V61.0768Z" fill="#6D6E70"/>
<g clip-path="url(#clip0_336_167)">
<path fill-rule="evenodd" clip-rule="evenodd" d="M99 36.22C114.5 38.37 117.8 26.32 131.29 26.18C115.36 24.45 112.92 35.93 99 36.22Z" fill="#90C03E"/>
<path fill-rule="evenodd" clip-rule="evenodd" d="M102.87 38.66C118.37 40.67 121.67 28.62 135.16 28.47C119.23 26.75 116.79 38.37 102.87 38.66Z" fill="#1D9AD6"/>
</g>
<defs>
<clipPath id="clip0_336_167">
<rect width="36.16" height="12.89" fill="white" transform="translate(99 26)"/>
</clipPath>
</defs>
</svg>
