<svg width="659" height="180" viewBox="0 0 659 180" fill="none" xmlns="http://www.w3.org/2000/svg">
<path d="M319.937 48.4246H345.43C360.995 48.4246 373.718 60.0299 373.718 74.2141C373.718 88.3984 360.995 98.86 345.43 98.86H329.016V128.365H319.937V48.4246ZM364.639 74.1132C364.639 64.8888 356.007 57.35 345.43 57.35H329.016V89.9308L345.43 89.9794C356.007 90.028 364.639 82.8891 364.639 74.1095V74.1132Z" fill="#90C03E"/>
<path d="M383.724 97.3201V48.4246H392.852V97.2715C392.852 110.712 401.633 120.478 413.506 120.478C425.379 120.478 434.16 110.66 434.16 97.2715V48.4246H443.287V97.3201C443.287 115.967 430.613 129.602 413.502 129.602C396.391 129.602 383.717 115.967 383.717 97.3201H383.724Z" fill="#90C03E"/>
<path d="M530.21 57.3014V82.5901H563.285V91.6164H530.21V119.387H568.378V128.361H521.131V48.4208H568.378V57.2976H530.21V57.3014Z" fill="#90C03E"/>
<path d="M487.225 96.1315C497.005 93.205 504.139 84.2795 504.139 73.9151C504.139 59.8318 491.968 48.4246 477.047 48.4246H453.301V57.35H477.349C486.827 57.35 494.811 64.4926 494.811 73.717C494.811 82.3435 486.927 89.587 477.349 89.587L468.673 89.5571V89.587H453.327L453.35 128.365H462.429V97.1706H477.446L499.896 128.365H511.121L487.222 96.1315H487.225Z" fill="#90C03E"/>
<path d="M8.11037 49.557H0V97.8657C0 120.747 13.6837 130.409 30.4111 130.409C45.1081 130.409 57.7822 118.206 59.3022 98.3741V49.557H51.1918V98.3741C50.1785 112.611 41.5614 122.272 30.4111 122.272C18.2474 122.272 8.11037 114.136 8.11037 98.3741V49.557Z" fill="#1D9AD6"/>
<path d="M77.9259 49.557H69.3088V129.389H116.95V121.256H77.4192L77.9259 49.557Z" fill="#1D9AD6"/>
<path fill-rule="evenodd" clip-rule="evenodd" d="M131.781 70.9138H140.398V129.901H131.781V70.9138ZM106.944 49.557H165.232V58.2021H106.944V49.557Z" fill="#1D9AD6"/>
<path d="M222.377 129.389L205.143 99.387H183.349V129.389H175.239V90.7419H204.637C214.774 90.7419 221.364 83.1134 221.364 74.4683C221.364 65.3148 214.774 57.6864 204.637 57.6864H175.239V49.5496H204.637C219.84 49.5496 229.977 60.7363 229.977 74.4645C229.977 84.6346 223.387 93.788 213.757 97.3462L232.004 129.381H222.374L222.377 129.389Z" fill="#1D9AD6"/>
<path d="M309.93 129.389H300.806L275.972 62.777L251.138 129.389H242.015L272.426 49.557H280.026L309.93 129.389Z" fill="#1D9AD6"/>
<path fill-rule="evenodd" clip-rule="evenodd" d="M531.276 36.2175C586.014 43.846 597.671 1.13248 645.316 0.624168C589.058 -5.47936 580.441 35.2009 531.276 36.2213V36.2175Z" fill="#90C03E"/>
<path fill-rule="evenodd" clip-rule="evenodd" d="M544.959 44.8626C599.698 51.9828 611.355 9.26929 659 8.76098C602.742 2.65745 594.125 43.846 544.959 44.8626Z" fill="#1D9AD6"/>
<path d="M4.66431 146.444H568.374V144.777H4.66431" fill="#6D6E70"/>
<path d="M6.01671 172.988V179.768H4.47437V163.117H10.6922C12.5885 163.117 14.0898 163.558 15.1888 164.444C16.2879 165.33 16.8355 166.545 16.8355 168.092C16.8355 169.639 16.3065 170.862 15.2485 171.714C14.1904 172.562 12.6592 172.988 10.6512 172.988H6.01299H6.01671ZM6.01671 171.8H10.6959C12.1936 171.8 13.3336 171.474 14.1196 170.828C14.9057 170.178 15.3006 169.273 15.3006 168.114C15.3006 166.956 14.9094 166.044 14.1271 165.36C13.3447 164.676 12.2345 164.328 10.7965 164.313H6.01671V171.803V171.8Z" fill="#6D6E70"/>
<path d="M58.546 163.117V174.483C58.5385 175.605 58.2665 176.58 57.7301 177.414C57.1973 178.243 56.4411 178.882 55.4687 179.327C54.4926 179.772 53.3787 179.996 52.1158 179.996C50.1934 179.996 48.6511 179.518 47.4962 178.561C46.3376 177.604 45.7378 176.277 45.6968 174.584V163.113H47.2279V174.379C47.2279 175.78 47.6676 176.872 48.5468 177.645C49.4223 178.419 50.6144 178.808 52.1195 178.808C53.6246 178.808 54.813 178.419 55.6885 177.642C56.564 176.864 56.9999 175.784 56.9999 174.394V163.117H58.5534H58.546Z" fill="#6D6E70"/>
<path d="M95.3462 172.828H90.0411V179.768H88.4839V163.117H94.4148C96.3633 163.117 97.8833 163.547 98.9786 164.407C100.074 165.266 100.621 166.47 100.621 168.017C100.621 169.082 100.279 170.024 99.5933 170.839C98.9078 171.654 97.9876 172.218 96.8327 172.529L101.4 179.619V179.768H99.7572L95.3425 172.828H95.3462ZM90.0449 171.639H94.7725C96.069 171.639 97.1084 171.303 97.8944 170.63C98.6805 169.957 99.0717 169.086 99.0717 168.017C99.0717 166.844 98.6619 165.928 97.8423 165.281C97.0227 164.631 95.8752 164.309 94.3962 164.309H90.0449V171.639Z" fill="#6D6E70"/>
<path d="M140.588 171.788H132.05V178.583H141.866V179.772H130.507V163.121H141.803V164.309H132.046V170.6H140.585V171.788H140.588Z" fill="#6D6E70"/>
<path d="M212.576 175.093H204.287L202.405 179.768H200.789L207.696 163.117H209.163L216.07 179.768H214.465L212.572 175.093H212.576ZM204.764 173.904H212.088L208.426 164.833L204.764 173.904Z" fill="#6D6E70"/>
<path d="M246.321 179.772H244.779V163.121H246.321V179.772Z" fill="#6D6E70"/>
<path d="M283.773 172.828H278.468V179.768H276.911V163.117H282.842C284.791 163.117 286.311 163.547 287.406 164.407C288.501 165.266 289.049 166.47 289.049 168.017C289.049 169.082 288.706 170.024 288.021 170.839C287.335 171.654 286.415 172.218 285.26 172.529L289.827 179.619V179.768H288.184L283.77 172.828H283.773ZM278.468 171.639H283.196C284.492 171.639 285.532 171.303 286.318 170.63C287.104 169.957 287.495 169.086 287.495 168.017C287.495 166.844 287.085 165.928 286.266 165.281C285.446 164.631 284.299 164.309 282.82 164.309H278.468V171.639Z" fill="#6D6E70"/>
<path d="M353.615 170.69C352.889 169.89 352.36 169.176 352.028 168.548C351.7 167.92 351.532 167.296 351.532 166.679C351.532 165.513 351.912 164.59 352.672 163.91C353.432 163.233 354.453 162.893 355.731 162.893C356.893 162.893 357.832 163.199 358.551 163.816C359.27 164.429 359.628 165.21 359.628 166.156C359.628 167.251 358.935 168.331 357.549 169.393L355.541 170.813L360.556 176.143C361.316 175.022 361.696 173.751 361.696 172.334H363.089C363.089 174.225 362.556 175.821 361.483 177.126L363.979 179.78H362.172L360.593 178.109C359.933 178.703 359.17 179.17 358.305 179.503C357.441 179.839 356.525 180.004 355.567 180.004C353.827 180.004 352.449 179.6 351.428 178.785C350.407 177.974 349.897 176.89 349.897 175.53C349.897 174.723 350.158 173.956 350.679 173.239C351.201 172.517 352.121 171.71 353.432 170.809L353.608 170.693L353.615 170.69ZM355.575 178.845C356.335 178.845 357.072 178.699 357.788 178.404C358.503 178.109 359.144 177.694 359.71 177.152L354.606 171.755L354.431 171.583L353.853 171.983C352.214 173.201 351.398 174.386 351.398 175.526C351.398 176.528 351.775 177.328 352.527 177.933C353.28 178.539 354.297 178.841 355.575 178.841V178.845ZM353.041 166.631C353.041 167.561 353.608 168.66 354.733 169.923L356.376 168.78C356.908 168.428 357.352 168.043 357.694 167.625C358.037 167.206 358.209 166.713 358.209 166.152C358.209 165.558 357.981 165.057 357.53 164.661C357.08 164.261 356.476 164.059 355.724 164.059C354.904 164.059 354.252 164.298 353.768 164.78C353.283 165.259 353.041 165.879 353.041 166.634V166.631Z" fill="#6D6E70"/>
<path d="M426.307 163.117L433.038 177.813L439.796 163.117H441.853V179.768H440.311V172.517L440.437 165.083L433.642 179.768H432.45L425.677 165.143L425.804 172.472V179.768H424.261V163.117H426.307Z" fill="#6D6E70"/>
<path d="M485.653 172.349C485.653 173.881 485.363 175.227 484.782 176.386C484.201 177.544 483.37 178.438 482.293 179.062C481.213 179.69 479.968 180 478.556 180C476.426 180 474.704 179.305 473.389 177.914C472.074 176.524 471.418 174.644 471.418 172.282V170.566C471.418 169.049 471.713 167.707 472.305 166.533C472.894 165.363 473.728 164.463 474.805 163.835C475.885 163.207 477.122 162.889 478.53 162.889C479.939 162.889 481.175 163.199 482.248 163.816C483.321 164.433 484.152 165.307 484.737 166.436C485.322 167.565 485.627 168.873 485.653 170.357V172.345V172.349ZM484.111 170.54C484.111 168.533 483.612 166.963 482.617 165.827C481.623 164.691 480.259 164.123 478.53 164.123C476.802 164.123 475.483 164.691 474.473 165.831C473.467 166.971 472.961 168.563 472.961 170.604V172.342C472.961 174.315 473.464 175.881 474.466 177.036C475.468 178.191 476.832 178.77 478.556 178.77C480.281 178.77 481.667 178.202 482.643 177.062C483.619 175.922 484.111 174.337 484.111 172.3V170.54Z" fill="#6D6E70"/>
<path d="M522.04 172.828H516.735V179.768H515.178V163.117H521.109C523.057 163.117 524.577 163.547 525.673 164.407C526.768 165.266 527.316 166.47 527.316 168.017C527.316 169.082 526.973 170.024 526.287 170.839C525.602 171.654 524.682 172.218 523.527 172.529L528.094 179.619V179.768H526.451L522.037 172.828H522.04ZM516.739 171.639H521.467C522.763 171.639 523.802 171.303 524.589 170.63C525.375 169.957 525.766 169.086 525.766 168.017C525.766 166.844 525.356 165.928 524.536 165.281C523.717 164.631 522.569 164.309 521.09 164.309H516.739V171.639Z" fill="#6D6E70"/>
<path d="M567.283 171.788H558.744V178.583H568.56V179.772H557.201V163.121H568.497V164.309H558.74V170.6H567.279V171.788H567.283Z" fill="#6D6E70"/>
<path d="M579.666 119.38C582.598 119.38 584.874 121.663 584.874 124.511C584.874 127.359 582.598 129.673 579.636 129.673C576.674 129.673 574.365 127.419 574.365 124.511C574.365 121.603 576.704 119.38 579.636 119.38H579.666ZM579.603 120.411C577.356 120.411 575.672 122.257 575.672 124.508C575.672 126.758 577.356 128.608 579.662 128.608C581.909 128.638 583.559 126.795 583.559 124.508C583.559 122.22 581.905 120.411 579.629 120.411H579.599H579.603ZM578.824 127.169H577.639V122.071C578.109 121.977 578.761 121.884 579.603 121.884C580.567 121.884 581.007 122.041 581.38 122.291C581.659 122.512 581.879 122.915 581.879 123.386C581.879 123.981 581.443 124.418 580.817 124.605V124.668C581.316 124.825 581.596 125.233 581.752 125.92C581.909 126.702 582.002 127.015 582.125 127.172H580.847C580.69 126.986 580.597 126.548 580.441 125.954C580.348 125.39 580.035 125.139 579.379 125.139H578.816V127.172L578.824 127.169ZM578.854 124.291H579.416C580.072 124.291 580.601 124.07 580.601 123.539C580.601 123.069 580.258 122.758 579.509 122.758C579.196 122.758 578.98 122.788 578.854 122.822V124.291Z" fill="#6D6E70"/>
</svg>
