<?xml version="1.0" encoding="UTF-8"?>
<svg id="Layer_2" xmlns="http://www.w3.org/2000/svg" viewBox="0 0 47.19 47.35">
  <defs>
    <style>
      .cls-1 {
        fill: #fff;
      }
    </style>
  </defs>
  <g id="Layer_1-2" data-name="Layer_1">
    <path class="cls-1" d="M27.45,22.01c1.16.81,2.33,1.19,3.64,1.11.48-.03.89.02,1.08.53.2.53-.09.85-.47,1.16-2.88,2.33-5.76,4.66-8.63,7-1.02.83-2.26,1.1-3.5,1.32-1.9.33-3.78.19-5.62-.37-.06-.02-.13-.03-.2-.04-.03.04-.07.08-.1.12.42.37.8.79,1.26,1.1.48.32,1.02.54,1.55.77.41.17.71.39.71.87,0,.45-.28.68-.68.83-2.36.89-4.8,1.18-7.29.99-1.36-.11-2.71-.36-4.06-.58-.3-.05-.46-.03-.61.28-1.5,2.97-2.58,6.06-2.84,9.4-.04.56-.38.88-.87.85-.53-.02-.85-.41-.81-1.02.2-2.59.85-5.08,1.85-7.47.4-.95.88-1.87,1.29-2.82.09-.21.11-.51.03-.72-2.75-7.17-1.28-13.59,3.44-19.43.07-.08.15-.15.21-.24.25-.31.56-.42.94-.31.38.11.51.41.62.77.26.87.56,1.72.86,2.57.05.16.18.29.35.55.11-.83.2-1.52.29-2.21.19-1.57.35-3.14.58-4.7.06-.38.26-.81.53-1.09C15.05,7,19.74,3.72,25.31,1.8c6.1-2.11,12.28-2.48,18.49-.47.95.31,1.85.74,2.76,1.16.62.29.75.63.52,1.28-.83,2.39-2.13,4.54-3.55,6.61-2.16,3.13-4.59,6.02-7.34,8.66-1.69,1.62-3.68,2.46-5.96,2.71-.88.1-1.77.17-2.77.26ZM4.46,33.7c.12-.18.22-.33.32-.49.74-1.08,1.45-2.2,2.24-3.25,5.96-7.83,13.37-14.08,21.5-19.51.55-.36,1.06-.3,1.34.14.28.44.14.9-.43,1.28-4.15,2.75-8.06,5.8-11.75,9.14-4.23,3.83-8.12,7.97-11.24,12.77-.29.45-.57.91-.86,1.39,2.7.69,6.7.77,8.32.17-.24-.2-.47-.38-.69-.57-1.02-.9-1.64-2-1.65-3.39,0-.86.59-1.25,1.36-.86,2.1,1.07,4.31,1.31,6.6.91,1.13-.2,2.16-.6,3.07-1.37,2.04-1.74,4.16-3.4,6.24-5.09.11-.09.2-.19.34-.32-1.83-.48-3.26-1.46-4.39-2.89-.26-.33-.39-.67-.18-1.06.2-.38.54-.44.93-.44,1.21,0,2.42-.02,3.63-.08,2.46-.12,4.64-.91,6.32-2.79,1.73-1.94,3.44-3.89,5.14-5.85.3-.35.55-.74.89-1.2-.27.04-.43.07-.58.09-1.35.23-2.71.38-4.08.17-.53-.08-.8-.41-.76-.9.04-.5.4-.8.94-.78.05,0,.1,0,.16.01,1.9.19,3.74-.1,5.52-.78.16-.06.36-.14.43-.27.76-1.35,1.5-2.72,2.27-4.13-.44-.19-.74-.33-1.05-.45-6.7-2.57-13.32-2.23-19.88.51-.14.06-.3.15-.36.28-.82,1.69-1.47,3.42-1.16,5.36.1.59-.13,1.01-.6,1.12-.46.11-.88-.11-1-.69-.13-.68-.2-1.39-.13-2.08.09-.89.33-1.76.51-2.65-.04.01-.08.02-.11.04-3.48,1.89-6.55,4.33-9.34,7.14-.12.12-.18.33-.21.51-.35,2.78-.7,5.57-1.03,8.36-.05.42-.18.74-.61.89-.41.14-.71-.03-.99-.31-.94-.96-1.7-2.05-2.22-3.3-.06-.14-.13-.26-.2-.42-3.75,4.79-4.46,11.06-2.6,15.66Z"/>
  </g>
</svg>