<?xml version="1.0" encoding="UTF-8"?>
<svg id="Layer_2" xmlns="http://www.w3.org/2000/svg" xmlns:xlink="http://www.w3.org/1999/xlink" viewBox="0 0 70.55 54.98">
  <defs>
    <style>
      .cls-1 {
        fill: #6e7071;
      }

      .cls-2 {
        fill: none;
        stroke: url(#linear-gradient);
        stroke-miterlimit: 10;
        stroke-width: 1.5px;
      }
    </style>
    <linearGradient id="linear-gradient" x1="0" y1="27.49" x2="70.55" y2="27.49" gradientUnits="userSpaceOnUse">
      <stop offset="0" stop-color="#1f95d1"/>
      <stop offset="1" stop-color="#8cbc3f"/>
    </linearGradient>
  </defs>
  <g id="Layer_1-2" data-name="Layer_1">
    <path class="cls-2" d="M63.91,54.56c3.72-5.51,5.89-12.14,5.89-19.29C69.8,16.21,54.34.75,35.28.75S.75,16.21.75,35.28c0,7.14,2.17,13.78,5.89,19.29"/>
    <g>
      <circle class="cls-1" cx="25.36" cy="27.87" r=".65"/>
      <circle class="cls-1" cx="32.65" cy="38.01" r=".65"/>
      <circle class="cls-1" cx="30.76" cy="31.33" r=".65"/>
      <circle class="cls-1" cx="31.23" cy="43.86" r=".65"/>
      <circle class="cls-1" cx="28.2" cy="18.47" r=".65"/>
      <circle class="cls-1" cx="43.43" cy="18" r="1.99"/>
      <circle class="cls-1" cx="22.55" cy="46.56" r="1.99"/>
      <circle class="cls-1" cx="18.74" cy="34.47" r=".65"/>
      <circle class="cls-1" cx="19.91" cy="22.04" r=".65"/>
      <circle class="cls-1" cx="39.02" cy="37.21" r=".65"/>
      <circle class="cls-1" cx="48.83" cy="40.19" r=".65"/>
      <circle class="cls-1" cx="50.53" cy="31.67" r=".65"/>
      <path class="cls-1" d="M25.13,39.14c-.52.03-1.21-.04-1.8-.13-.04,0-.08-.03-.08-.08.94-.43,2.01-.69,2.94-1.19,1.17-.5,2.23-1.22,3.14-2.11,1.93-1.71,4.79-2.43,7.21-1.4.57.22,1.14.43,1.69.7.22.09.59.48.07.35-1.43-.32-2.91-.15-4.33.1-3.29.45-5.32,4.1-8.83,3.76Z"/>
      <path class="cls-1" d="M44.63,31.79c-1.36,0-2.6-.58-3.83-1.08-.19-.1-.55-.21-.56-.45.03-.06.08-.05.14-.03.52.14,1.06.18,1.6.21,1.87-.03,3.82-.26,5.46-1.24,2.71-1.98,4.59-3.44,8.11-2.6-1.52.67-3.28,1.16-4.7,2.17-1.97,1.64-3.47,3.03-6.21,3.04Z"/>
      <path class="cls-1" d="M16.92,30.46c5.55-.31,4.84-1.57,9.05-3.64,1.31-.62,2.8-.47,4.2-.31.07,0,.22.07.11.14-1.52.53-3.03,1.09-4.41,1.94-.52.31-.97.71-1.41,1.13-1.21,1.11-2.75,1.91-4.4,2.03-.94.09-1.91-.02-2.79-.36-.73-.33-1.57-.5-2.21-1-.1-.1-.06-.21.09-.15.58.13,1.17.18,1.77.23Z"/>
      <path class="cls-1" d="M27.62,22.59c.3-.49.97-.55,1.44-.8,2.01-.97,4.43-.93,6.37.18.75.38,1.37.92,1.97,1.48,1.34,1.21,3.05,1.88,4.73,2.49,2.39.6-1.48.5-2.02.5-1.83-.19-3.38-1.39-4.82-2.45-1.87-1.34-4.33-1.69-6.59-1.54-.37,0-.72.21-1.09.14Z"/>
    </g>
  </g>
</svg>