<?xml version="1.0" encoding="UTF-8"?>
<svg id="Layer_2" xmlns="http://www.w3.org/2000/svg" viewBox="0 0 57.36 52.89">
  <defs>
    <style>
      .cls-1 {
        fill: #fff;
      }
    </style>
  </defs>
  <g id="Layer_1-2" data-name="Layer_1">
    <path class="cls-1" d="M57.36,28.15c-.14,1.01-.26,2.03-.43,3.04-1.82,10.3-9.85,18.72-20.05,21.03-13.24,2.99-26.4-4.25-30.92-17.04-.75-2.12-1.21-4.3-1.37-6.55-.02-.26-.05-.52-.08-.73-.62-.13-1.22-.2-1.77-.39C1.09,26.94.03,25.44,0,23.71c-.02-1.87,0-3.73,0-5.6,0-1.43.26-1.74,1.7-1.97,0-1.07,0-2.14,0-3.22,0-.26-.01-.52.01-.78.08-.77.64-1.28,1.38-1.26.74.02,1.27.55,1.29,1.34.02,1.1,0,2.2,0,3.3,0,.2,0,.4,0,.64h2.79c0-.69,0-1.38,0-2.06,0-.65-.03-1.31.02-1.96.05-.76.64-1.28,1.37-1.26.74.02,1.28.56,1.29,1.34.02,1.3,0,2.61,0,3.94.19.02.33.04.47.06.78.1,1.27.58,1.28,1.37.02,2.09.06,4.18-.02,6.27-.08,2.14-1.72,3.74-3.87,3.94-.16.01-.33.03-.53.04.1,1.97.42,3.87,1.03,5.72,2.58,7.7,7.69,12.98,15.4,15.5,11.42,3.73,23.7-1.64,28.77-12.51,4.62-9.92,2.01-21.46-6.34-28.35-4.85-4-10.45-5.8-16.72-5.43-3.72.22-7.21,1.3-10.43,3.21-.16.09-.32.19-.48.28-.71.37-1.49.18-1.87-.44-.4-.66-.19-1.43.53-1.87,1.91-1.19,3.93-2.14,6.1-2.75,8.93-2.51,17.13-1.02,24.38,4.81,5.5,4.42,8.67,10.25,9.58,17.27.07.51.14,1.03.2,1.54v3.36ZM21.62,34.21c.01,3.88,3.86,6.1,7.24,4.17.74-.42,1.49-.85,2.23-1.28,3.76-2.17,7.53-4.32,11.28-6.51,3.3-1.92,3.13-6.4.22-8.12-4.59-2.72-9.22-5.35-13.85-7.99-3.29-1.87-7.11.38-7.12,4.17,0,2.59,0,5.19,0,7.78,0,2.59,0,5.19,0,7.78Z"/>
  </g>
</svg>