<?xml version="1.0" encoding="UTF-8"?>
<svg id="Layer_2" xmlns="http://www.w3.org/2000/svg" xmlns:xlink="http://www.w3.org/1999/xlink" viewBox="0 0 70.55 54.98">
  <defs>
    <style>
      .cls-1 {
        fill: #6e7071;
      }

      .cls-2 {
        fill: none;
        stroke: url(#linear-gradient);
        stroke-miterlimit: 10;
        stroke-width: 1.5px;
      }
    </style>
    <linearGradient id="linear-gradient" x1="0" y1="27.49" x2="70.55" y2="27.49" gradientUnits="userSpaceOnUse">
      <stop offset="0" stop-color="#1f95d1"/>
      <stop offset="1" stop-color="#8cbc3f"/>
    </linearGradient>
  </defs>
  <g id="Layer_1-2" data-name="Layer_1">
    <path class="cls-2" d="M63.91,54.56c3.72-5.51,5.89-12.14,5.89-19.29C69.8,16.21,54.34.75,35.28.75S.75,16.21.75,35.28c0,7.14,2.17,13.78,5.89,19.29"/>
    <path class="cls-1" d="M43.48,11.73c.21.05.43.08.64.15.97.33,1.73.89,2.02,1.92.25.89.13,1.74-.46,2.47-.47.58-1.32.78-2.11.53-.71-.23-1.16-.83-1.22-1.59-.05-.7.39-1.31,1.06-1.44.2-.04.36.06.4.23.04.16-.05.31-.23.37-.56.19-.74.55-.55,1.11.13.4.4.67.81.75,1.01.21,1.64-.27,1.78-1.34.16-1.26-.58-2.13-1.83-2.45-1.08-.27-2.08.02-2.83.83-.79.85-.91,1.9-.52,2.98.15.43.41.83.67,1.2.59.83,1.23,1.62,1.72,2.51.26.47.47.96.54,1.5.09.66-.07,1.26-.41,1.82-.37.62-.75,1.22-1.11,1.85-.31.55-.52,1.14-.59,1.77-.1.92.14,1.75.58,2.54.14.24.3.47.44.7.1.16.07.34-.07.44-.14.09-.32.07-.42-.08-.57-.79-1-1.63-1.13-2.61-.13-1.01.08-1.96.54-2.85.32-.62.7-1.21,1.06-1.81.21-.36.43-.72.47-1.15.05-.48-.06-.93-.24-1.36-.35-.81-.88-1.51-1.39-2.21-.33-.46-.69-.91-.98-1.41-.53-.92-.67-1.91-.37-2.93.39-1.35,1.36-2.06,2.68-2.35.11-.03.23-.05.34-.07.23,0,.47,0,.7,0ZM39.64,19.81c-.92-1.49-2.57-1.94-4.08-1.11-1.24.68-1.88,2.21-1.51,3.66.25.96.79,1.66,1.82,1.83.81.14,1.54-.03,2.04-.75.35-.5.45-1.07.34-1.67-.13-.72-.73-1.19-1.46-1.18-.19,0-.32.11-.33.28-.01.18.1.31.29.33.04,0,.07,0,.11.01.52.07.76.33.81.85.07.72-.33,1.37-.96,1.51-.74.17-1.48-.05-1.86-.83-.4-.8-.37-1.62,0-2.42.62-1.34,2.51-1.93,3.73-.82.37.33.63.73.81,1.19.4,1.01.42,2-.17,2.95-.3.48-.6.96-.87,1.46-.3.56-.59,1.12-.83,1.7-.28.7-.32,1.42-.07,2.15.19.54.52.98.93,1.37.14.13.32.13.44,0,.12-.13.12-.3-.02-.44-.08-.09-.16-.17-.24-.25-.46-.52-.7-1.12-.65-1.82.04-.52.19-1.01.44-1.45.4-.73.83-1.45,1.26-2.17.36-.62.67-1.25.66-1.99,0-.85-.2-1.65-.65-2.38ZM45.31,30.15c.05.2.22.29.39.24.18-.06.26-.22.2-.43-.26-.82-.1-1.59.4-2.27.21-.28.48-.52.73-.78.73-.73,1.05-1.59.81-2.62-.25-1.08-1.23-1.83-2.24-1.78-1.31.06-2.07,1.24-2.03,2.31.03.76.44,1.27,1.15,1.46.73.2,1.44-.17,1.62-.85.15-.55-.13-1.03-.65-1.1-.18-.02-.32.07-.36.24-.03.15.06.3.22.36.23.07.25.13.18.36-.08.24-.25.38-.49.42-.51.08-.95-.22-1.04-.73-.03-.19-.03-.4.02-.58.14-.61.49-1.07,1.12-1.22.64-.15,1.17.07,1.56.58.39.5.47,1.07.31,1.68-.13.52-.47.89-.85,1.24-.75.68-1.19,1.5-1.23,2.54.06.31.1.62.18.92ZM19.59,21.48v2.76c.21.47.65.36,1.04.39,0,.16,0,.28,0,.4,0,2.89,0,5.78,0,8.67,0,1.1,0,2.21,0,3.31,0,.5.18.68.68.69.12,0,.23,0,.34,0,.06.45.1.84.17,1.23.29,1.6,1.12,2.87,2.33,3.92.75.65,1.53,1.26,2.27,1.92,1.11.99,1.68,2.26,1.8,3.74.1,1.15-.02,2.28-.23,3.41-.14.75.02.95.79.95,5.37,0,10.74,0,16.12,0,.1,0,.2,0,.31,0,.42-.04.63-.39.45-.77-.1-.21-.22-.41-.33-.62-.41-.77-.69-1.58-.87-2.44-.31-1.44-.28-2.9-.3-4.36,0-.21.13-.22.26-.27,1.23-.44,2.32-1.11,3.24-2.03,1.23-1.23,2-2.69,2.21-4.43.02-.21.07-.38.31-.47.13-.05.24-.16.34-.26.44-.45.57-1.12.32-1.7-.3-.67-.85-.96-1.57-.96-5.99,0-11.99,0-17.98,0-.53,0-.71.19-.72.72,0,.45,0,.89,0,1.34h-1.02v-7.3c.22,0,.43.01.63,0,.83-.07,1.45-.75,1.44-1.58,0-.83-.65-1.49-1.48-1.54-.19,0-.38,0-.58,0v-1.58c.13,0,.24,0,.35,0,.5,0,.67-.18.68-.69,0-.58-.01-1.16,0-1.75,0-.32-.1-.55-.38-.7h-10.6ZM23.06,37.7c2.22,0,4.43,0,6.65,0,.27,0,.34.08.38.35.33,2.38,1.59,4.16,3.58,5.44.58.37,1.23.62,1.86.92.13.06.24.09.24.29-.02,1.47,0,2.94-.31,4.39-.2.91-.53,1.78-.98,2.59-.04.06-.13.14-.2.14-1.71,0-3.41,0-5.12,0,0,0-.02-.01-.04-.02.06-.55.13-1.1.17-1.66.1-1.42-.02-2.81-.63-4.13-.5-1.08-1.31-1.88-2.21-2.63-.64-.53-1.29-1.03-1.9-1.59-1.17-1.07-1.75-2.44-1.82-4.06.12,0,.22-.02.32-.02ZM48.86,37.72c-.11.47-.18.93-.33,1.36-.61,1.77-1.82,3.02-3.44,3.89-1.18.63-2.45.97-3.78.98-1.26,0-2.55.06-3.79-.13-2.6-.39-4.63-1.69-5.84-4.1-.31-.62-.49-1.29-.55-2.01h17.73ZM21.7,36.63v-11.99h6.75v11.99h-6.75ZM43.12,44.81c-.01,2.39.04,4.77,1.21,6.99h-8.71c1.16-2.21,1.22-4.58,1.2-6.99,2.12.3,4.18.3,6.29,0ZM31.62,35.62c.11,0,.21-.02.32-.02,5.74,0,11.47,0,17.21,0,.06,0,.12,0,.18,0,.35.03.57.23.58.52,0,.3-.22.51-.59.53-.08,0-.16,0-.24,0-5.69,0-11.37,0-17.06,0-.12,0-.24,0-.4,0v-1.03ZM20.64,22.55h8.86v1h-8.86v-1ZM30.46,27.48c.08.14.08.41,0,.56-.2.36-.58.23-.92.24v-1.02c.34.01.71-.13.92.23Z"/>
  </g>
</svg>