<?xml version="1.0" encoding="UTF-8"?>
<svg id="Layer_2" xmlns="http://www.w3.org/2000/svg" xmlns:xlink="http://www.w3.org/1999/xlink" viewBox="0 0 70.55 54.98">
  <defs>
    <style>
      .cls-1 {
        fill: #6e7071;
      }

      .cls-2 {
        fill: none;
        stroke: url(#linear-gradient);
        stroke-miterlimit: 10;
        stroke-width: 1.5px;
      }
    </style>
    <linearGradient id="linear-gradient" x1="0" y1="27.49" x2="70.55" y2="27.49" gradientUnits="userSpaceOnUse">
      <stop offset="0" stop-color="#1f95d1"/>
      <stop offset="1" stop-color="#8cbc3f"/>
    </linearGradient>
  </defs>
  <g id="Layer_1-2" data-name="Layer_1">
    <path class="cls-2" d="M63.91,54.56c3.72-5.51,5.89-12.14,5.89-19.29C69.8,16.21,54.34.75,35.28.75S.75,16.21.75,35.28c0,7.14,2.17,13.78,5.89,19.29"/>
    <path class="cls-1" d="M24.62,37.01c.78,1.03.86,2.08.28,2.97-.54.83-1.54,1.24-2.5,1.03-1.1-.24-1.67-1-1.89-2.49-1.3-.06-2.21-.65-2.5-1.98-.2-.9.24-1.87,1.02-2.4.89-.59,1.88-.52,2.94.22.09-.08.18-.16.27-.24,1.62-1.62,3.24-3.23,4.85-4.86.14-.15.27-.35.32-.54.72-2.59,1.44-5.19,2.15-7.79.19-.7.29-.75.99-.55,1.54.43,3.06-.65,3.15-2.25.04-.62.34-.78.89-.48,2.22,1.24,4.88.04,5.42-2.43.13-.62.38-.74.95-.45,2.7,1.39,4.4,4.4,4.16,7.35-.27,3.29-2.32,5.97-5.37,6.87-3.1.91-6.22,1.73-9.33,2.61-.25.07-.51.23-.7.41-1.59,1.57-3.17,3.16-4.76,4.74-.1.1-.22.17-.34.27ZM40.9,15.82c-1.25,2.85-3.37,3.8-6.31,2.96-.71,2-1.88,2.73-4.16,2.58-.69,2.52-1.39,5.05-2.08,7.59.88.32,1.44.92,1.75,1.75,3.1-.86,6.16-1.67,9.2-2.55,3.53-1.01,5.58-4.61,4.68-8.17-.45-1.81-1.53-3.17-3.08-4.15ZM22.9,40.11c.6,0,1.13-.35,1.35-.9.22-.57.06-1.2-.4-1.61-.49-.43-.5-.59-.04-1.04,1.66-1.66,3.33-3.33,4.99-4.99.5-.5.51-.69.02-1.22-.15-.16-.34-.27-.51-.39-.24-.17-.43-.14-.66.09-1.71,1.73-3.43,3.44-5.15,5.16-.48.48-.63.48-1.07-.03-.42-.48-1.1-.63-1.68-.36-.58.26-.93.9-.82,1.51.12.67.6,1.15,1.26,1.19.27.02.54-.11.82-.13.19-.01.44-.02.55.09.11.11.08.36.09.55,0,.07-.06.14-.08.21-.32.91.36,1.87,1.33,1.88ZM44.72,35.99c.2-.8.33-1.58.59-2.32.21-.61.56-1.17.87-1.74.17-.31.48-.37.71-.19.26.21.24.46.07.71-.66.97-1.02,2.05-1.17,3.21-.02.14-.03.27-.04.45.23-.21.41-.39.61-.57,1.55-1.39,3.31-1.71,5.27-1.03.14.05.3.1.41.2.15.14.35.32.35.49,0,.16-.2.38-.37.46-1.01.51-1.88,1.18-2.54,2.1-2.03,2.81-1.57,6.59,1.07,8.84.52.44.52.65,0,1.09-.77.65-1.62,1.16-2.63,1.33-.84.14-1.62,0-2.36-.44-.11-.06-.3-.1-.39-.04-1.4.86-2.76.63-4.09-.15-.37-.22-.71-.5-1.05-.77-.42-.35-.41-.61.01-.96,1.24-1.03,2.01-2.33,2.29-3.92.5-2.79-.91-5.64-3.43-6.94-.09-.05-.2-.07-.27-.14-.14-.14-.36-.31-.36-.47,0-.16.17-.4.33-.48,1.35-.71,2.74-.73,4.14-.18.79.31,1.43.83,1.99,1.44ZM40.95,47.14c.94.92,2.79,1.53,4,.35.23-.22.49-.23.71,0,1.19,1.2,3.07.57,4.01-.35-1.75-1.69-2.59-3.75-2.37-6.18.22-2.44,1.44-4.31,3.45-5.74-.56-.05-1.11-.12-1.64-.04-1.46.23-2.47,1.14-3.15,2.39-.39.71-.81.89-1.29,0-.6-1.13-1.5-1.97-2.77-2.32-.67-.18-1.33-.19-2.06,0,4.19,2.73,4.74,8.52,1.11,11.9ZM29.27,46.27c0,.58,0,1.14,0,1.7,0,.42-.18.65-.49.64-.29-.01-.45-.23-.45-.64,0-.56,0-1.12,0-1.7h-1c0,.24,0,.49,0,.74,0,.31-.14.53-.47.54-.33,0-.47-.22-.47-.53,0-.24,0-.48,0-.75h-1.03c0,.69,0,1.37,0,2.06,0,.76-.22.91-.94.64-1.58-.59-2.94-1.52-4.1-2.75-.33-.34-.33-.55,0-.88,1.2-1.26,2.6-2.21,4.25-2.8.55-.2.8-.03.81.55,0,.71,0,1.43,0,2.18h1.03c0-.24,0-.49,0-.74,0-.31.13-.53.47-.53.34,0,.46.22.47.53,0,.24,0,.48,0,.74h1c0-.48,0-.96,0-1.44,0-.14,0-.28,0-.42.02-.28.17-.46.45-.47.31,0,.47.18.48.48,0,.6,0,1.2,0,1.84h1c0-.25,0-.5,0-.75.01-.31.16-.52.49-.51.32,0,.44.22.46.51,0,.25,0,.5,0,.77h1c0-.25,0-.5,0-.75,0-.31.12-.53.46-.53.33,0,.47.21.48.52,0,.24,0,.48,0,.75.7.05,1.33.14,1.88-.46.63-.67,1.37-1.23,2.06-1.84.18-.16.37-.33.65-.2.27.12.28.37.28.61,0,1.59,0,3.17,0,4.76,0,.25,0,.55-.28.6-.2.04-.48-.05-.64-.19-.77-.64-1.52-1.3-2.25-1.97-.27-.25-.54-.39-.92-.35-.24.03-.48,0-.79,0,0,.26,0,.51,0,.76,0,.31-.14.53-.47.54-.33,0-.47-.21-.47-.53,0-.24,0-.48,0-.75h-1c0,.26,0,.5,0,.74,0,.3-.14.53-.47.54-.33,0-.47-.22-.48-.53,0-.24,0-.48,0-.75h-1ZM24.41,43.61c-1.24.52-2.27,1.24-3.21,2.17.94.94,1.98,1.66,3.21,2.17v-4.33ZM37.07,47.28v-3c-.6.52-1.14,1-1.7,1.5.58.51,1.11.98,1.7,1.5ZM18.5,14.74c-.32.59-.43,1.23-.33,1.89.08.51.23,1.02.4,1.51.34.98.38,1.95,0,2.92-.12.3-.11.56.21.71.27.13.52-.01.67-.38.04-.11.08-.21.12-.32.35-1.16.27-2.29-.18-3.41-.35-.87-.47-1.74-.01-2.63.16-.31-.06-.64-.53-.66-.08.08-.26.19-.36.36ZM48.71,21.71c.27.25.63.11.79-.32.48-1.27.41-2.52-.09-3.77-.34-.85-.45-1.7,0-2.55.13-.24.06-.49-.2-.62-.25-.13-.49-.06-.62.19-.13.23-.24.48-.3.74-.24.94-.07,1.84.29,2.73.4.99.42,1.99.03,2.99-.03.08-.06.17-.1.29.06.1.1.24.2.33ZM52.27,23.62c-.07.26,0,.47.24.57.25.11.48.04.61-.22.06-.11.1-.23.14-.35.25-.84.21-1.66-.11-2.47-.24-.61-.34-1.22-.03-1.85.12-.25.02-.45-.2-.59-.23-.14-.45-.07-.61.14-.09.12-.15.27-.2.41-.25.71-.14,1.4.1,2.1.13.38.22.78.32,1.17-.1.39-.19.74-.28,1.1ZM23.15,21.22c-.23-.66-.39-1.29-.05-1.96.11-.22.02-.46-.22-.58-.25-.12-.45-.05-.6.17-.09.14-.16.29-.21.45-.22.73-.12,1.44.16,2.13.28.69.3,1.39.03,2.09-.12.3-.06.55.24.67.3.12.54-.02.63-.32.13-.44.22-.88.33-1.33-.1-.46-.16-.91-.31-1.32ZM52.62,24.99c-.29,0-.44.18-.47.45-.02.26.22.49.49.47.29-.02.43-.19.45-.44,0-.29-.2-.49-.46-.48ZM18.89,22.45c-.28-.03-.52.17-.52.43,0,.28.16.46.44.49.28.02.45-.14.49-.41,0-.28-.11-.47-.41-.5ZM49.35,22.94c.02-.26-.21-.5-.47-.48-.28.01-.45.17-.45.46,0,.29.17.43.4.47.29,0,.51-.19.53-.44ZM22.59,24.98c-.29,0-.45.15-.47.44-.02.27.21.51.47.49.28-.02.43-.18.46-.47-.03-.27-.17-.45-.46-.45ZM41.46,18.24c-.24-.27-.52-.32-.73-.12-.24.23-.2.47,0,.71.53.69.53,1.26,0,1.97-.19.25-.23.5.03.71.25.21.5.13.7-.1.41-.46.61-.99.62-1.61-.02-.59-.21-1.12-.61-1.56ZM42.82,23.05c-.1-.35-.35-.5-.62-.42-.28.08-.38.33-.29.69.2.79-.04,1.36-.77,1.76-.33.18-.43.42-.3.68.13.26.4.32.73.16.87-.43,1.31-1.15,1.36-2.2-.03-.16-.06-.42-.12-.66ZM34.6,23.6c0-.45-.21-.96-.5-1.25-.21-.21-.45-.26-.68-.06-.21.19-.21.41-.05.65.38.57.38.78.02,1.31-.17.25-.19.48.05.68.26.21.54.15.69-.11.23-.37.39-.78.58-1.17-.03-.02-.07-.03-.1-.05ZM39.66,21.34c-.15-.25-.43-.3-.67-.12-.26.19-.25.44-.07.7.35.51.35.77,0,1.28-.17.25-.19.49.04.68.25.21.54.15.7-.11.23-.37.39-.78.6-1.22-.21-.44-.38-.85-.6-1.22ZM33.28,25.87c-.2-.22-.44-.28-.68-.09-.24.19-.23.43-.06.68.37.54.37.76,0,1.31-.17.25-.17.49.07.67.24.18.52.15.67-.1.23-.37.4-.78.5-.99-.03-.7-.17-1.13-.5-1.48ZM36.95,24.4c-.2-.22-.44-.28-.68-.08-.24.19-.23.43-.06.68.37.54.37.75,0,1.31-.17.25-.17.49.07.68.23.17.46.13.65-.07.33-.35.49-.77.5-1.26,0-.46-.16-.89-.49-1.24ZM37.06,20.08c-.2-.2-.43-.23-.65-.05-.22.18-.25.43-.07.65.37.45.38.89,0,1.35-.18.22-.17.46.05.65.23.2.48.16.68-.06.33-.35.49-.77.49-1.3,0-.44-.16-.88-.51-1.23ZM44.78,42.79c.02.27.17.46.46.47.29,0,.46-.16.48-.44.02-.47.02-.94,0-1.41-.01-.28-.18-.45-.47-.45-.29,0-.44.19-.46.46-.02.23,0,.46,0,.69,0,.23-.02.46,0,.69ZM23.19,45.79c.02-.27-.21-.49-.48-.47-.29.02-.45.18-.44.47,0,.29.18.43.46.46.28-.04.45-.18.47-.46Z"/>
  </g>
</svg>