<?xml version="1.0" encoding="UTF-8"?>
<svg id="Layer_2" xmlns="http://www.w3.org/2000/svg" xmlns:xlink="http://www.w3.org/1999/xlink" viewBox="0 0 70.55 54.98">
  <defs>
    <style>
      .cls-1 {
        fill: #6e7071;
      }

      .cls-2 {
        fill: none;
        stroke: url(#linear-gradient);
        stroke-miterlimit: 10;
        stroke-width: 1.5px;
      }
    </style>
    <linearGradient id="linear-gradient" x1="0" y1="27.49" x2="70.55" y2="27.49" gradientUnits="userSpaceOnUse">
      <stop offset="0" stop-color="#1f95d1"/>
      <stop offset="1" stop-color="#8cbc3f"/>
    </linearGradient>
  </defs>
  <g id="Layer_1-2" data-name="Layer_1">
    <path class="cls-2" d="M63.91,54.56c3.72-5.51,5.89-12.14,5.89-19.29C69.8,16.21,54.34.75,35.28.75S.75,16.21.75,35.28c0,7.14,2.17,13.78,5.89,19.29"/>
    <path class="cls-1" d="M49.03,11.58c.24.06.48.09.71.17,1.07.36,1.91.98,2.23,2.12.28.98.14,1.91-.51,2.72-.52.64-1.46.86-2.33.58-.78-.25-1.28-.91-1.35-1.76-.06-.78.43-1.44,1.16-1.59.22-.04.4.06.44.25.04.18-.06.34-.25.41-.62.21-.82.61-.61,1.23.15.44.44.73.9.83,1.11.24,1.81-.3,1.96-1.48.18-1.39-.64-2.36-2.01-2.7-1.2-.3-2.29.02-3.13.91-.88.94-1.01,2.1-.57,3.29.17.47.45.91.74,1.32.65.91,1.35,1.78,1.9,2.77.29.52.51,1.06.6,1.65.1.72-.08,1.39-.45,2-.41.68-.83,1.35-1.22,2.04-.34.61-.57,1.26-.65,1.95-.11,1.01.15,1.94.64,2.81.15.26.33.51.49.77.11.18.08.38-.08.49-.15.1-.35.08-.47-.09-.63-.87-1.1-1.8-1.24-2.88-.15-1.12.08-2.17.59-3.15.36-.68.78-1.33,1.17-2,.24-.4.47-.79.52-1.27.06-.53-.06-1.02-.27-1.5-.39-.89-.97-1.66-1.53-2.44-.37-.51-.77-1.01-1.08-1.55-.58-1.01-.74-2.1-.41-3.24.43-1.49,1.49-2.27,2.95-2.59.12-.03.25-.05.37-.08.26,0,.52,0,.77,0ZM44.79,20.48c-1.01-1.64-2.84-2.14-4.5-1.23-1.37.75-2.08,2.44-1.66,4.04.27,1.06.88,1.83,2.01,2.02.89.16,1.7-.03,2.25-.83.39-.56.5-1.19.38-1.84-.14-.79-.81-1.31-1.61-1.3-.21,0-.35.12-.36.3-.02.2.11.34.32.37.04,0,.08,0,.12.01.57.08.84.36.89.93.07.79-.37,1.51-1.06,1.67-.82.18-1.63-.06-2.05-.92-.44-.88-.41-1.78,0-2.67.69-1.48,2.77-2.13,4.11-.91.4.37.7.81.9,1.32.44,1.11.46,2.2-.18,3.26-.33.53-.66,1.06-.96,1.61-.33.61-.66,1.23-.91,1.88-.3.77-.35,1.57-.07,2.37.21.6.58,1.09,1.03,1.52.16.15.35.14.49,0,.14-.14.13-.33-.02-.49-.09-.1-.18-.18-.27-.28-.5-.58-.77-1.23-.71-2.01.04-.57.21-1.11.48-1.6.44-.81.92-1.6,1.39-2.39.4-.68.74-1.38.73-2.19.01-.94-.22-1.82-.72-2.63ZM51.05,31.9c.05.23.24.33.43.27.2-.06.29-.24.22-.47-.28-.91-.11-1.75.44-2.5.23-.31.53-.58.81-.86.81-.81,1.15-1.76.89-2.89-.28-1.19-1.35-2.01-2.47-1.96-1.44.07-2.29,1.37-2.24,2.55.03.83.49,1.4,1.27,1.61.81.22,1.58-.19,1.79-.94.17-.6-.15-1.14-.71-1.21-.2-.03-.36.08-.4.27-.04.17.07.34.24.39.25.08.28.14.2.39-.08.27-.27.42-.54.46-.56.09-1.05-.24-1.15-.81-.03-.21-.03-.44.02-.64.15-.68.54-1.18,1.23-1.34.7-.17,1.29.08,1.72.64.43.55.52,1.18.35,1.85-.15.57-.52.99-.94,1.37-.83.75-1.32,1.66-1.36,2.81.06.34.11.68.19,1.01ZM20.09,36.54c.13.16.27.31.51.22.23-.09.25-.28.25-.5,0-1.12,0-2.24,0-3.36,0-.32.14-.56.43-.68.26-.11.51-.06.73.12.2.18.24.41.24.67,0,1.64,0,3.28,0,4.92,0,.87,0,1.75,0,2.62,0,.41.11.52.52.52,2.95,0,5.9,0,8.86,0,.1,0,.2,0,.31,0v1.38h-11.08c0-.09-.01-.18-.01-.26,0-1.3,0-2.59,0-3.89,0-.21,0-.41-.24-.51-.23-.09-.38.04-.52.19v5c.14.2.33.25.57.24.4-.01.8,0,1.21,0,0,.98,0,1.91,0,2.84,0,.2-.05.28-.25.35-.8.27-1.32,1.1-1.22,1.91.11.89.79,1.57,1.67,1.66.84.08,1.65-.44,1.92-1.25.33-.97-.17-1.99-1.15-2.35-.08-.03-.21-.1-.22-.16-.02-.36-.01-.72-.01-1.08h21.08c0,.33-.01.64,0,.95,0,.18-.06.24-.22.3-.91.31-1.43,1.23-1.22,2.14.2.89.99,1.49,1.89,1.46.88-.03,1.61-.7,1.75-1.6.13-.85-.4-1.7-1.24-1.99-.16-.06-.22-.13-.21-.3,0-.88,0-1.77,0-2.65,0-.07,0-.15.01-.21.04-.01.05-.02.07-.02.25,0,.5,0,.76,0,.44,0,.55-.11.55-.56,0-1.46,0-2.93,0-4.39,0-1.03.01-2.05,0-3.08-.01-.71-.51-1.25-1.21-1.38-.63-.12-1.29.23-1.56.86-.07.17-.16.2-.32.2-.99,0-1.98,0-2.98,0-.09,0-.19,0-.28.02-.2.05-.3.18-.29.39.01.19.12.31.31.34.08.01.17.01.25.01.96,0,1.92,0,2.88,0,.09,0,.18,0,.28,0v6.81h-10.22v-.3c0-1.6,0-3.2,0-4.79,0-1.1.62-1.72,1.72-1.72,1.1,0,2.2,0,3.31,0,.31,0,.47-.13.48-.36,0-.24-.16-.39-.46-.39-1.17,0-2.34-.02-3.51,0-1.21.03-2.1.83-2.28,2.02-.02.12-.02.24-.04.36h-4.48s-.03-.06-.03-.08c-.09-.73-.5-1.18-1.21-1.38-.98-.29-1.95-.61-2.94-.91-.21-.06-.29-.15-.29-.38.01-.62.03-1.25-.03-1.86-.05-.59-.41-.99-.97-1.17-.56-.19-1.08-.07-1.48.36-.19.21-.29.5-.43.75v3.94ZM22.64,43.25h21.04v1.13h-21.04v-1.13ZM31.94,40.31h-8.92v-2.25h8.92v2.25ZM43.71,42.47c0-.09-.01-.18-.01-.26,0-2.27,0-4.54,0-6.81,0-.25.04-.49.25-.66.21-.18.45-.22.71-.12.24.1.39.28.42.55.01.09.01.18.01.28,0,2.24,0,4.49,0,6.73,0,.09,0,.18,0,.28h-1.38ZM23.01,35.62c.48.15.93.29,1.39.43.58.18,1.15.36,1.73.54.34.11.51.35.52.69h-3.63v-1.67ZM23.34,48.17c0,.6-.49,1.09-1.08,1.09-.61,0-1.11-.5-1.1-1.11,0-.6.5-1.08,1.1-1.07.61,0,1.08.48,1.08,1.09ZM44.07,47.08c.6,0,1.09.48,1.1,1.08,0,.61-.49,1.11-1.1,1.1-.6,0-1.08-.49-1.08-1.09,0-.61.48-1.08,1.08-1.09ZM31.54,24.18c-.1.02-.19.04-.29.06-2.63.44-4.46,2.92-4.09,5.51.39,2.69,2.77,4.54,5.46,4.23,2.27-.26,4.06-2.08,4.31-4.37.25-2.28-1.16-4.46-3.34-5.17-.34-.11-.7-.17-1.04-.26-.34,0-.67,0-1.01,0ZM32.01,33.26c-2.27-.01-4.14-1.89-4.13-4.16.01-2.31,1.88-4.17,4.18-4.16,2.3,0,4.14,1.88,4.13,4.18,0,2.31-1.88,4.16-4.19,4.15ZM29.73,27.93c-.35.08-.57.44-.56.84.01.42-.11.86.2,1.24.39.47.93.27,1.42.33.09.44-.11.92.23,1.31.35.41.83.3,1.27.3,1.15-.01.95-.89.98-1.63.26,0,.49,0,.72,0,.55-.01.91-.37.92-.92,0-.19,0-.39,0-.58,0-.6-.36-.96-.96-.96-.22,0-.45,0-.67,0-.08-.45.09-.9-.18-1.28-.31-.43-.76-.35-1.2-.36-.29,0-.57.01-.8.22-.43.39-.23.91-.3,1.38-.37.03-.73.02-1.07.1ZM32.94,29.57c-.28,0-.42.14-.42.42,0,.33,0,.66,0,.98,0,.18-.06.23-.24.23-.7.01-.7.02-.7-.7,0-.18,0-.37,0-.55-.02-.25-.15-.38-.41-.38-.33,0-.66,0-.98,0-.18,0-.27-.05-.25-.24.01-.17,0-.34,0-.5,0-.15.07-.21.21-.21.33,0,.66,0,.98,0,.31,0,.44-.13.45-.45,0-.32,0-.64,0-.96,0-.18.06-.23.24-.24.7-.02.7-.02.7.67,0,.17,0,.34,0,.5,0,.33.14.46.46.46.32,0,.64,0,.96,0,.16,0,.24.05.23.22,0,.18,0,.35,0,.53,0,.15-.07.21-.22.21-.18,0-.35,0-.53,0-.16,0-.32,0-.48,0Z"/>
  </g>
</svg>