<?xml version="1.0" encoding="UTF-8"?>
<svg id="Layer_2" xmlns="http://www.w3.org/2000/svg" xmlns:xlink="http://www.w3.org/1999/xlink" viewBox="0 0 70.55 54.98">
  <defs>
    <style>
      .cls-1 {
        fill: #6e7071;
      }

      .cls-2 {
        fill: none;
        stroke: url(#linear-gradient);
        stroke-miterlimit: 10;
        stroke-width: 1.5px;
      }
    </style>
    <linearGradient id="linear-gradient" x1="0" y1="27.49" x2="70.55" y2="27.49" gradientUnits="userSpaceOnUse">
      <stop offset="0" stop-color="#1f95d1"/>
      <stop offset="1" stop-color="#8cbc3f"/>
    </linearGradient>
  </defs>
  <g id="Layer_1-2" data-name="Layer_1">
    <g>
      <path class="cls-1" d="M36.85,32.78c-.28,0-.56,0-.84,0-.3-.01-.47-.18-.49-.46-.01-.3.15-.49.47-.5.54-.02,1.08-.02,1.62,0,.2,0,.32-.06.42-.24.73-1.28,1.48-2.56,2.21-3.84.18-.31.39-.44.75-.44,1.56.01,3.13.01,4.69,0,.36,0,.58.13.75.44.73,1.28,1.48,2.56,2.21,3.84.1.18.21.24.42.24,1.39,0,2.77-.01,4.16,0,.22,0,.33-.08.43-.27.68-1.23,1.38-2.45,2.07-3.67.07-.12.14-.24.24-.33.17-.16.38-.17.57-.03.19.14.29.33.2.57-.04.1-.09.19-.14.28-.71,1.26-1.42,2.52-2.13,3.78-.1.17-.11.3,0,.48.68,1.15,1.35,2.3,2.01,3.46.1.18.21.25.42.24.5-.02,1,0,1.5,0,.4,0,.59.18.6.52,0,.34-.19.5-.61.5-.48,0-.96-.01-1.44,0-.12,0-.28.09-.33.19-.69,1.16-1.36,2.34-2.05,3.5-.11.18-.07.29.05.43.71.83,1.41,1.67,2.12,2.51.24.29.26.54.06.75-.19.2-.47.19-.74-.08-.27-.27-.51-.57-.76-.87-.5-.6-.99-1.21-1.5-1.79-.09-.11-.28-.18-.42-.18-1.37-.01-2.75,0-4.13-.01-.19,0-.3.05-.4.22-.67,1.19-1.35,2.37-2.04,3.55-.1.18-.07.29.05.44.86,1.08,1.7,2.16,2.55,3.24.06.08.14.16.18.26.09.23.07.47-.16.61-.23.14-.47.1-.65-.11-.3-.36-.59-.73-.88-1.1-.63-.79-1.26-1.58-1.87-2.38-.12-.16-.25-.21-.45-.21-1.36,0-2.73,0-4.09,0-.21,0-.32.06-.42.24-.73,1.28-1.48,2.56-2.21,3.84-.18.32-.42.45-.78.45-1.58-.01-3.17-.01-4.75,0-.37,0-.6-.13-.78-.45-.72-1.27-1.46-2.52-2.18-3.79-.13-.22-.27-.3-.52-.29-.42.02-.83,0-1.25,0-.44,0-.62-.14-.63-.47,0-.34.18-.49.64-.49.41,0,.81-.01,1.22,0,.23.01.35-.06.47-.26.73-1.28,1.48-2.56,2.21-3.84.17-.3.38-.42.73-.42,1.46.01,2.92,0,4.38.01.22,0,.33-.07.44-.26.68-1.19,1.37-2.38,2.06-3.57.09-.15.09-.26,0-.42-.7-1.19-1.39-2.39-2.08-3.6-.09-.17-.2-.24-.39-.22-.26.02-.52,0-.78,0h0ZM51.12,32.73c-.68,0-1.35,0-2.03,0-.18,0-.28.05-.37.21-.7,1.22-1.4,2.43-2.1,3.66-.05.09-.05.24,0,.33.7,1.23,1.4,2.46,2.12,3.68.06.1.22.18.34.18,1.37.01,2.75,0,4.12.01.18,0,.28-.05.37-.21.69-1.21,1.39-2.42,2.09-3.62.08-.14.09-.24,0-.39-.7-1.2-1.4-2.41-2.09-3.62-.1-.17-.21-.22-.4-.22-.69.01-1.37,0-2.06,0ZM35.65,41.71c-.69,0-1.37,0-2.06,0-.17,0-.28.04-.38.2-.69,1.21-1.4,2.41-2.08,3.63-.06.1-.06.29,0,.39.69,1.21,1.38,2.42,2.1,3.62.06.11.24.2.36.21,1.36.01,2.73,0,4.09.01.21,0,.32-.07.41-.25.68-1.19,1.37-2.38,2.06-3.57.09-.15.1-.27,0-.43-.7-1.19-1.39-2.39-2.08-3.59-.1-.17-.21-.22-.4-.22-.68.01-1.35,0-2.03,0ZM43.39,45.29c.7,0,1.4,0,2.09,0,.11,0,.25-.09.31-.18.71-1.21,1.42-2.43,2.11-3.65.05-.09.06-.26,0-.35-.7-1.23-1.4-2.46-2.12-3.68-.06-.1-.22-.18-.34-.18-1.37-.01-2.75,0-4.12-.01-.18,0-.28.06-.37.22-.69,1.21-1.39,2.42-2.09,3.62-.08.15-.09.25,0,.39.7,1.2,1.4,2.41,2.09,3.62.09.16.19.21.37.21.69-.01,1.37,0,2.06,0ZM43.41,28.32c-.69,0-1.37,0-2.06,0-.19,0-.3.06-.39.23-.69,1.2-1.38,2.4-2.08,3.59-.09.16-.08.27,0,.42.69,1.19,1.38,2.37,2.06,3.57.1.18.21.24.42.24,1.35,0,2.71,0,4.06,0,.2,0,.32-.06.42-.24.68-1.19,1.37-2.38,2.06-3.57.1-.17.09-.29,0-.45-.69-1.19-1.38-2.37-2.06-3.57-.09-.16-.2-.23-.39-.23-.68.01-1.35,0-2.03,0Z"/>
      <path class="cls-1" d="M48.33,36.33c.07.05.25.14.34.28.48.81.94,1.64,1.4,2.46.16.3.09.61-.16.74-.25.13-.54.04-.71-.26-.46-.8-.92-1.6-1.36-2.41-.23-.42-.04-.82.49-.81Z"/>
      <path class="cls-1" d="M34.64,43.31c-.03.07-.06.21-.13.32-.44.78-.88,1.56-1.32,2.34-.2.35-.47.45-.74.29-.28-.17-.32-.43-.12-.79.44-.79.89-1.58,1.34-2.36.13-.22.29-.39.57-.34.26.05.4.21.4.54Z"/>
      <path class="cls-1" d="M44.99,44.34c-.52,0-.73-.42-.52-.8.37-.66.75-1.32,1.14-1.97.11-.18.11-.32,0-.51-.39-.66-.76-1.34-1.13-2.01-.13-.24-.13-.49.09-.68.18-.17.4-.18.6-.04.09.06.16.16.22.26.45.78.89,1.58,1.34,2.36.13.22.13.42,0,.64-.46.79-.9,1.6-1.36,2.38-.1.17-.29.29-.37.37Z"/>
      <path class="cls-1" d="M42.42,29.81c-.03.07-.05.16-.09.24-.47.83-.94,1.66-1.41,2.49-.17.3-.43.38-.68.24-.27-.15-.36-.42-.19-.72.47-.83.93-1.67,1.42-2.49.09-.15.32-.27.49-.28.14,0,.29.19.42.31.04.03.02.12.04.21Z"/>
      <path class="cls-1" d="M46.88,32.16c-.07.18-.11.29-.16.39-.45.81-.91,1.61-1.37,2.41-.19.34-.46.43-.75.27-.27-.15-.32-.41-.12-.76.46-.82.92-1.63,1.38-2.44.12-.21.32-.38.56-.27.18.08.31.26.45.39Z"/>
    </g>
    <path class="cls-2" d="M63.91,54.56c3.72-5.51,5.89-12.14,5.89-19.29C69.8,16.21,54.34.75,35.28.75S.75,16.21.75,35.28c0,7.14,2.17,13.78,5.89,19.29"/>
    <g>
      <path class="cls-1" d="M16.04,23.17c0,2.05-1.66,3.71-3.71,3.71s-3.71-1.66-3.71-3.71,1.66-3.71,3.71-3.71,3.71,1.66,3.71,3.71"/>
      <path class="cls-1" d="M33.75,22.32c0,2.05-1.66,3.71-3.71,3.71s-3.71-1.66-3.71-3.71,1.66-3.71,3.71-3.71,3.71,1.66,3.71,3.71"/>
      <path class="cls-1" d="M27.18,38.25c0,2.05-1.66,3.71-3.71,3.71s-3.71-1.66-3.71-3.71,1.66-3.71,3.71-3.71,3.71,1.66,3.71,3.71"/>
      <path class="cls-1" d="M23.46,21.7c0,1.26-1.02,2.28-2.28,2.28s-2.28-1.02-2.28-2.28,1.02-2.28,2.28-2.28,2.28,1.02,2.28,2.28"/>
      <path class="cls-1" d="M19.29,33.15c0,1.26-1.02,2.28-2.28,2.28s-2.28-1.02-2.28-2.28,1.02-2.28,2.28-2.28,2.28,1.02,2.28,2.28"/>
      <path class="cls-1" d="M25.16,28.58c0,1.73-1.4,3.13-3.13,3.13s-3.13-1.4-3.13-3.13,1.4-3.13,3.13-3.13,3.13,1.4,3.13,3.13"/>
      <path class="cls-1" d="M30.36,31.71c0,1.08-.87,1.95-1.95,1.95s-1.95-.87-1.95-1.95.87-1.95,1.95-1.95,1.95.87,1.95,1.95"/>
      <rect class="cls-1" x="20.05" y="18.34" width=".64" height="18.21" transform="translate(-13.42 32.56) rotate(-62.03)"/>
      <rect class="cls-1" x="21.71" y="19.48" width=".64" height="18.21" transform="translate(-3.31 2.89) rotate(-6.99)"/>
      <rect class="cls-1" x="13.39" y="28.26" width="17.29" height=".64" transform="translate(-12.89 19.47) rotate(-37.74)"/>
    </g>
  </g>
</svg>