<?xml version="1.0" encoding="UTF-8"?>
<svg id="Layer_2" xmlns="http://www.w3.org/2000/svg" xmlns:xlink="http://www.w3.org/1999/xlink" viewBox="0 0 38.52 38.52">
  <defs>
    <style>
      .cls-1 {
        fill: #fff;
      }

      .cls-2 {
        fill: url(#linear-gradient);
      }
    </style>
    <linearGradient id="linear-gradient" x1="0" y1="19.26" x2="38.52" y2="19.26" gradientUnits="userSpaceOnUse">
      <stop offset="0" stop-color="#1f96d2"/>
      <stop offset=".13" stop-color="#2598c8"/>
      <stop offset=".34" stop-color="#389eb0"/>
      <stop offset=".6" stop-color="#56a987"/>
      <stop offset=".91" stop-color="#7fb850"/>
      <stop offset="1" stop-color="#8cbd3f"/>
    </linearGradient>
  </defs>
  <g id="Layer_1-2" data-name="Layer_1">
    <rect class="cls-2" width="38.52" height="38.52" rx="6.51" ry="6.51"/>
    <path class="cls-1" d="M19.27,25.68c3.98,0,7.95,0,11.93,0,.56,0,.67.11.67.67,0,1.08,0,2.16,0,3.23,0,.44-.15.59-.59.59-8.01,0-16.01,0-24.02,0-.45,0-.6-.15-.6-.61,0-1.1,0-2.19,0-3.29,0-.46.14-.6.61-.6,4,0,8.01,0,12.01,0ZM16.32,16.26c.51-.67.53-1.64.05-2.37-.34-.53-.81-.96-1.23-1.42-.13-.14-.24-.41-.39-.4-.14.01-.27.26-.4.4-.43.47-.91.9-1.24,1.45-.42.69-.45,1.4-.07,2.11.36.67.97.96,1.7.99.65-.03,1.19-.25,1.58-.76ZM23.06,16.9c.8.29,1.69.06,2.22-.57.56-.67.6-1.68.1-2.44-.43-.66-1.05-1.17-1.54-1.79-.07-.09-.12-.05-.17.02-.42.47-.85.93-1.26,1.4-.38.44-.62.93-.62,1.4,0,.98.5,1.7,1.26,1.98ZM10.66,13.23c1.37-.29,1.99-1.84,1.23-3.05-.32-.51-.75-.91-1.14-1.35-.16-.18-.32-.49-.49-.5-.21,0-.34.33-.51.51-.4.43-.84.83-1.15,1.34-.41.69-.44,1.41-.05,2.11.36.66.96.95,1.72.97.11-.01.25-.01.39-.04ZM19.69,13.22c1.36-.3,1.96-1.83,1.22-3.04-.31-.51-.75-.91-1.14-1.35-.16-.18-.32-.49-.49-.5-.21-.01-.34.32-.51.51-.4.43-.84.83-1.15,1.34-.41.69-.44,1.41-.06,2.11.36.66.95.95,1.73.98.11-.01.26-.02.41-.05ZM28.67,13.23c1.37-.29,1.99-1.83,1.24-3.05-.32-.51-.75-.91-1.14-1.35-.16-.18-.32-.49-.49-.5-.21,0-.34.33-.51.51-.4.43-.84.83-1.15,1.34-.41.69-.44,1.41-.06,2.11.36.66.96.95,1.72.97.11-.01.25-.01.39-.04ZM24.22,24.79c.2,0,.33-.06.47-.19,1.56-1.57,3.12-3.13,4.69-4.69.07-.07.12-.16.24-.19,0,.21,0,.39,0,.58,0,.33.18.53.46.52.26,0,.44-.2.44-.51,0-.55,0-1.11,0-1.66,0-.35-.16-.52-.51-.53-.55-.01-1.11,0-1.66,0-.33,0-.53.19-.53.46,0,.27.2.43.54.45.18,0,.36-.03.58.04-1.91,1.91-3.79,3.79-5.73,5.72.4,0,.71-.01,1.01,0ZM15.2,24.68c-2.13-2.13-4.25-4.26-6.38-6.38-.22-.22-.49-.23-.67-.04-.2.2-.19.45.05.69,1.9,1.9,3.8,3.8,5.7,5.71.08.08.16.14.29.14.35,0,.69,0,1.08,0-.04-.06-.05-.09-.07-.11Z"/>
  </g>
</svg>