<?xml version="1.0" encoding="UTF-8"?>
<svg id="Layer_2" xmlns="http://www.w3.org/2000/svg" xmlns:xlink="http://www.w3.org/1999/xlink" viewBox="0 0 38.52 38.52">
  <defs>
    <style>
      .cls-1 {
        fill: #fff;
      }

      .cls-2 {
        fill: url(#linear-gradient);
      }
    </style>
    <linearGradient id="linear-gradient" x1="0" y1="19.26" x2="38.52" y2="19.26" gradientUnits="userSpaceOnUse">
      <stop offset="0" stop-color="#1f96d2"/>
      <stop offset=".13" stop-color="#2598c8"/>
      <stop offset=".34" stop-color="#389eb0"/>
      <stop offset=".6" stop-color="#56a987"/>
      <stop offset=".91" stop-color="#7fb850"/>
      <stop offset="1" stop-color="#8cbd3f"/>
    </linearGradient>
  </defs>
  <g id="Layer_1-2" data-name="Layer_1">
    <rect class="cls-2" y="0" width="38.52" height="38.52" rx="6.51" ry="6.51"/>
    <path class="cls-1" d="M8.03,14.76c.18-.46.52-.61.99-.61,1.19.02,2.37.01,3.56,0,.18,0,.38-.05.53-.14,2.78-1.52,5.56-3.04,8.33-4.59.97-.54,1.96,0,2.18.79.05.18.08.37.08.56,0,6.03,0,12.06,0,18.08,0,1.28-1.16,1.95-2.28,1.33-2.77-1.52-5.54-3.05-8.31-4.57-.16-.09-.35-.14-.53-.14-1.19-.01-2.37-.02-3.56,0-.47,0-.82-.15-.99-.61v-10.11ZM22.15,10.82c-.09.05-.16.07-.21.1-2.64,1.45-5.28,2.91-7.92,4.36-.16.09-.2.2-.2.37,0,2.78,0,5.55,0,8.33,0,.19.06.29.22.38,2.62,1.44,5.24,2.88,7.85,4.32.08.04.16.08.26.13V10.82ZM9.59,15.71v8.19h2.66v-8.19h-2.66ZM31.14,19.59c1-.99,1.99-1.99,2.99-2.99.22-.22.35-.47.28-.78-.06-.29-.24-.49-.53-.58-.31-.09-.57,0-.8.22-1.01,1.02-2.03,2.03-3.04,3.05-.07.07-.13.13-.24.23-.07-.09-.12-.18-.18-.24-1-1-2.01-2-3.01-3.01-.25-.25-.53-.35-.87-.23-.55.2-.69.86-.25,1.3,1.01,1.02,2.03,2.03,3.04,3.05.06.06.13.13.2.22-.41.41-.82.81-1.22,1.21-.68.68-1.37,1.36-2.04,2.04-.43.43-.28,1.11.28,1.29.34.11.62,0,.86-.25,1-1.01,2-2.01,3.01-3.01.06-.06.13-.12.21-.2.52.52,1.03,1.03,1.54,1.54.57.57,1.13,1.13,1.7,1.7.34.33.82.35,1.13.04.31-.31.3-.78-.03-1.13-.08-.08-.16-.16-.24-.24-1-1-1.99-1.99-3.05-3.05.1-.07.18-.12.25-.18Z"/>
  </g>
</svg>